<svg xmlns="http://www.w3.org/2000/svg" viewBox="0 0 24 24" width="24" height="24" fill="currentColor">
  <path d="M12 .5a12 12 0 00-3.79 23.4c.6.11.82-.26.82-.58v-2.03c-3.34.73-4.04-1.6-4.04-1.6-.55-1.4-1.33-1.77-1.33-1.77-1.09-.74.08-.73.08-.73 1.2.08 1.83 1.24 1.83 1.24 1.07 1.83 2.8 1.3 3.48.99.11-.77.42-1.3.76-1.6-2.67-.3-5.47-1.34-5.47-5.96 0-1.32.47-2.4 1.24-3.25-.12-.3-.54-1.52.12-3.17 0 0 1.01-.32 3.3 1.23a11.4 11.4 0 016 0c2.29-1.55 3.3-1.23 3.3-1.23.66 1.65.24 2.87.12 3.17.77.85 1.24 1.93 1.24 3.25 0 4.64-2.8 5.65-5.47 5.95.43.37.82 1.1.82 2.22v3.29c0 .32.21.7.82.58A12 12 0 0012 .5z"/>
</svg>